name Walk8.mot
datacolumns 19
datarows 22
range 1.49500000 1.51600000
endheader

                time	   L_ground_force_vx	   L_ground_force_vy	   L_ground_force_vz	   L_ground_force_px	   L_ground_force_py	   L_ground_force_pz	   R_ground_force_vx	   R_ground_force_vy	   R_ground_force_vz	   R_ground_force_px	   R_ground_force_py	   R_ground_force_pz	   L_ground_torque_x	   L_ground_torque_y	   L_ground_torque_z	   R_ground_torque_x	   R_ground_torque_y	   R_ground_torque_z	
          1.49500000	          0.01811341	          0.04130385	         -0.00561792	         -0.00005061	          0.00000000	         -0.00001800	        -26.78667787	        407.97481310	        -31.92747424	          0.57430688	          0.00000000	          0.08534667	          0.00000000	          0.00024493	          0.00000000	          0.00000000	          2.44409416	          0.00000000	
          1.49600000	          0.01639586	          0.03696831	         -0.00522394	         -0.00004806	          0.00000000	         -0.00001719	        -26.69432740	        406.71178188	        -31.65851510	          0.57522305	          0.00000000	          0.08533721	          0.00000000	          0.00022570	          0.00000000	          0.00000000	          2.41596941	          0.00000000	
          1.49700000	          0.01476239	          0.03286170	         -0.00484372	         -0.00004554	          0.00000000	         -0.00001638	        -26.60184084	        405.51943576	        -31.39112867	          0.57612469	          0.00000000	          0.08532617	          0.00000000	          0.00020725	          0.00000000	          0.00000000	          2.38818450	          0.00000000	
          1.49800000	          0.01321202	          0.02898008	         -0.00447753	         -0.00004306	          0.00000000	         -0.00001558	        -26.50892428	        404.39726594	        -31.12551547	          0.57701143	          0.00000000	          0.08531359	          0.00000000	          0.00018958	          0.00000000	          0.00000000	          2.36067635	          0.00000000	
          1.49900000	          0.01174354	          0.02531898	         -0.00412555	         -0.00004063	          0.00000000	         -0.00001479	        -26.41529015	        403.34469919	        -30.86187325	          0.57788292	          0.00000000	          0.08529949	          0.00000000	          0.00017271	          0.00000000	          0.00000000	          2.33338287	          0.00000000	
          1.50000000	          0.01035554	          0.02187349	         -0.00378790	         -0.00003826	          0.00000000	         -0.00001401	        -26.32065716	        402.36109903	        -30.60039636	          0.57873882	          0.00000000	          0.08528392	          0.00000000	          0.00015661	          0.00000000	          0.00000000	          2.30624328	          0.00000000	
          1.50100000	          0.00904642	          0.01863829	         -0.00346466	         -0.00003594	          0.00000000	         -0.00001324	        -26.22475017	        401.44576758	        -30.34127524	          0.57957882	          0.00000000	          0.08526692	          0.00000000	          0.00014129	          0.00000000	          0.00000000	          2.27919831	          0.00000000	
          1.50200000	          0.00781443	          0.01560773	         -0.00315580	         -0.00003368	          0.00000000	         -0.00001249	        -26.12730000	        400.59794818	        -30.08469646	          0.58040260	          0.00000000	          0.08524853	          0.00000000	          0.00012674	          0.00000000	          0.00000000	          2.25219037	          0.00000000	
          1.50300000	          0.00665765	          0.01277586	         -0.00286128	         -0.00003149	          0.00000000	         -0.00001176	        -26.02804350	        399.81682801	        -29.83084290	          0.58120989	          0.00000000	          0.08522880	          0.00000000	          0.00011295	          0.00000000	          0.00000000	          2.22516340	          0.00000000	
          1.50400000	          0.00557408	          0.01013650	         -0.00258099	         -0.00002936	          0.00000000	         -0.00001104	        -25.92672382	        399.10154066	        -29.57989416	          0.58200046	          0.00000000	          0.08520780	          0.00000000	          0.00009990	          0.00000000	          0.00000000	          2.19806262	          0.00000000	
          1.50500000	          0.00456156	          0.00768324	         -0.00231477	         -0.00002731	          0.00000000	         -0.00001034	        -25.82309091	        398.45116809	        -29.33202673	          0.58277409	          0.00000000	          0.08518558	          0.00000000	          0.00008759	          0.00000000	          0.00000000	          2.17083414	          0.00000000	
          1.50600000	          0.00361790	          0.00540953	         -0.00206245	         -0.00002532	          0.00000000	         -0.00000967	        -25.71690205	        397.86474238	        -29.08741369	          0.58353060	          0.00000000	          0.08516218	          0.00000000	          0.00007599	          0.00000000	          0.00000000	          2.14342460	          0.00000000	
          1.50700000	          0.00274081	          0.00330871	         -0.00182378	         -0.00002341	          0.00000000	         -0.00000901	        -25.60792222	        397.34124710	        -28.84622383	          0.58426985	          0.00000000	          0.08513765	          0.00000000	          0.00006509	          0.00000000	          0.00000000	          2.11578093	          0.00000000	
          1.50800000	          0.00192793	          0.00137400	         -0.00159852	         -0.00002158	          0.00000000	         -0.00000838	        -25.49592448	        396.87961870	        -28.60862056	          0.58499172	          0.00000000	          0.08511204	          0.00000000	          0.00005487	          0.00000000	          0.00000000	          2.08785035	          0.00000000	
          1.50900000	          0.00117688	         -0.00040141	         -0.00138637	         -0.00001982	          0.00000000	         -0.00000776	        -25.38069016	        396.47874770	        -28.37476078	          0.58569612	          0.00000000	          0.08508538	          0.00000000	          0.00004531	          0.00000000	          0.00000000	          2.05958034	          0.00000000	
          1.51000000	          0.00048524	         -0.00202434	         -0.00118701	         -0.00001813	          0.00000000	         -0.00000717	        -25.26200928	        396.13748007	        -28.14479419	          0.58638299	          0.00000000	          0.08505769	          0.00000000	          0.00003640	          0.00000000	          0.00000000	          2.03091880	          0.00000000	
          1.51100000	         -0.00014943	         -0.00350164	         -0.00100012	         -0.00001652	          0.00000000	         -0.00000661	        -25.13968083	        395.85461876	        -27.91886308	          0.58705228	          0.00000000	          0.08502901	          0.00000000	          0.00002810	          0.00000000	          0.00000000	          2.00181413	          0.00000000	
          1.51200000	         -0.00072957	         -0.00484010	         -0.00082535	         -0.00001498	          0.00000000	         -0.00000607	        -25.01351311	        395.62892585	        -27.69710251	          0.58770398	          0.00000000	          0.08499936	          0.00000000	          0.00002041	          0.00000000	          0.00000000	          1.97221547	          0.00000000	
          1.51300000	         -0.00125763	         -0.00604646	         -0.00066231	         -0.00001351	          0.00000000	         -0.00000555	        -24.88332399	        395.45912519	        -27.47964071	          0.58833807	          0.00000000	          0.08496875	          0.00000000	          0.00001329	          0.00000000	          0.00000000	          1.94207296	          0.00000000	
          1.51400000	         -0.00173604	         -0.00712741	         -0.00051063	         -0.00001212	          0.00000000	         -0.00000505	        -24.74894116	        395.34390589	        -27.26659923	          0.58895458	          0.00000000	          0.08493720	          0.00000000	          0.00000672	          0.00000000	          0.00000000	          1.91133813	          0.00000000	
          1.51500000	         -0.00216721	         -0.00808952	         -0.00036992	         -0.00001081	          0.00000000	         -0.00000458	        -24.61020234	        395.28192664	        -27.05809262	          0.58955354	          0.00000000	          0.08490472	          0.00000000	          0.00000069	          0.00000000	          0.00000000	          1.87996445	          0.00000000	
          1.51600000	         -0.00255353	         -0.00893926	         -0.00023978	         -0.00000956	          0.00000000	         -0.00000412	        -24.46695552	        395.27182162	        -26.85422742	          0.59013502	          0.00000000	          0.08487131	          0.00000000	         -0.00000483	          0.00000000	          0.00000000	          1.84790799	          0.00000000	
